<svg width="62" height="31" viewBox="0 0 62 31" fill="none" xmlns="http://www.w3.org/2000/svg">
<path d="M57 26.0053C56.7904 26.8948 56.2751 27.6824 55.544 28.2307C54.8129 28.779 53.9126 29.0531 53 29.0053H24C23.2044 29.0053 22.4413 28.6893 21.8787 28.1267C21.3161 27.5641 21 26.801 21 26.0053L25 4.00534C25.2096 3.11589 25.7249 2.32829 26.456 1.78C27.1871 1.23171 28.0874 0.957541 29 1.00534H58C58.7956 1.00534 59.5587 1.32141 60.1213 1.88402C60.6839 2.44663 61 3.20969 61 4.00534L57 26.0053Z" stroke="white" stroke-width="2" stroke-miterlimit="10" stroke-linecap="round" stroke-linejoin="round"/>
<path d="M9 21.0053H13M1 5.00534H17H1ZM5 13.0053H15H5Z" stroke="white" stroke-width="2" stroke-miterlimit="10" stroke-linecap="round" stroke-linejoin="round"/>
</svg>
