<svg width="62" height="52" viewBox="0 0 62 52" fill="none" xmlns="http://www.w3.org/2000/svg">
<path d="M41 1H21C15.6957 1 10.6086 3.10714 6.85786 6.85786C3.10714 10.6086 1 15.6957 1 21C1 26.3043 3.10714 31.3914 6.85786 35.1421C10.6086 38.8929 15.6957 41 21 41H23V51L35 41H41C46.3043 41 51.3914 38.8929 55.1421 35.1421C58.8929 31.3914 61 26.3043 61 21C61 15.6957 58.8929 10.6086 55.1421 6.85786C51.3914 3.10714 46.3043 1 41 1V1Z" stroke="#202020" stroke-width="2" stroke-miterlimit="10" stroke-linecap="round" stroke-linejoin="round"/>
<path d="M19 23C20.1046 23 21 22.1046 21 21C21 19.8954 20.1046 19 19 19C17.8954 19 17 19.8954 17 21C17 22.1046 17.8954 23 19 23Z" stroke="#5649CF" stroke-width="2" stroke-miterlimit="10" stroke-linecap="round" stroke-linejoin="round"/>
<path d="M31 23C32.1046 23 33 22.1046 33 21C33 19.8954 32.1046 19 31 19C29.8954 19 29 19.8954 29 21C29 22.1046 29.8954 23 31 23Z" stroke="#5649CF" stroke-width="2" stroke-miterlimit="10" stroke-linecap="round" stroke-linejoin="round"/>
<path d="M43 23C44.1046 23 45 22.1046 45 21C45 19.8954 44.1046 19 43 19C41.8954 19 41 19.8954 41 21C41 22.1046 41.8954 23 43 23Z" stroke="#5649CF" stroke-width="2" stroke-miterlimit="10" stroke-linecap="round" stroke-linejoin="round"/>
</svg>
