<svg width="59" height="59" viewBox="0 0 59 59" fill="none" xmlns="http://www.w3.org/2000/svg">
<path d="M36.8751 57.1562H49.7813V31.341H56.5857C56.6317 31.3411 56.6766 31.3274 56.7148 31.3017C56.7529 31.2761 56.7826 31.2396 56.7998 31.197C56.8171 31.1543 56.8212 31.1075 56.8116 31.0626C56.802 31.0176 56.7792 30.9765 56.7461 30.9446L49.7813 24.2149V11.0625H41.4845V16.1946L29.5001 4.60938L2.25315 30.9473C2.22004 30.9793 2.19723 31.0203 2.18766 31.0653C2.17809 31.1103 2.1822 31.1571 2.19945 31.1997C2.21669 31.2424 2.2463 31.2788 2.28445 31.3045C2.32261 31.3302 2.36757 31.3438 2.41355 31.3438H9.21883V57.1562H22.1251" stroke="white" stroke-width="2" stroke-miterlimit="10" stroke-linecap="round" stroke-linejoin="round"/>
<path d="M36.875 53.4688V39.6406H22.125V53.4688" stroke="white" stroke-width="2" stroke-miterlimit="10" stroke-linecap="round" stroke-linejoin="round"/>
</svg>
