<svg width="1440" height="426" viewBox="0 0 1440 426" fill="none" xmlns="http://www.w3.org/2000/svg">
<path d="M-37 251C-14.5 256.833 42 243.8 88 145C145.5 21.4999 187.5 -24.0001 292 -20.5001M-25.5 318C10.1667 321.333 93.9 301.7 143.5 196.5C205.5 65 237.5 10 420 -9.5M-37 150.5C-18.6667 148.833 23.6 126.8 46 52C68.4 -22.8 120.333 -49.5 143.5 -53.5M1460 240C1456.5 251 1398 331 1300.5 337.5C1222.5 342.7 1204 456.667 1204.5 513M1300.5 494C1299.5 463.167 1311.2 400.5 1366 396.5C1420.8 392.5 1455.5 359.833 1466 344M1466 122C1441.67 162.167 1383.77 243.006 1300.5 251C1175.5 263 1142 376.5 1118.5 466.5" stroke="#5B17DF" stroke-width="3"/>
</svg>
